0
SECTION
2
HEADER
9
$INSUNITS
70
4
9
$ACADVER
1
AC1014
9
$HANDSEED
5
FFFF
0
ENDSEC
0
SECTION
2
TABLES
0
TABLE
2
VPORT
5
8
100
AcDbSymbolTable
0
ENDTAB
0
TABLE
2
LTYPE
5
5
100
AcDbSymbolTable
0
LTYPE
5
14
100
AcDbSymbolTableRecord
100
AcDbLinetypeTableRecord
2
BYBLOCK
70
0
0
LTYPE
5
15
100
AcDbSymbolTableRecord
100
AcDbLinetypeTableRecord
2
BYLAYER
70
0
0
ENDTAB
0
TABLE
2
LAYER
5
2
100
AcDbSymbolTable
70
2
0
LAYER
5
50
100
AcDbSymbolTableRecord
100
AcDbLayerTableRecord
2
0
70
0
6
CONTINUOUS
0
ENDTAB
0
TABLE
2
STYLE
5
3
100
AcDbSymbolTable
70
1
0
STYLE
5
11
100
AcDbSymbolTableRecord
100
AcDbTextStyleTableRecord
2
STANDARD
70
0
0
ENDTAB
0
TABLE
2
VIEW
5
6
100
AcDbSymbolTable
70
0
0
ENDTAB
0
TABLE
2
UCS
5
7
100
AcDbSymbolTable
70
0
0
ENDTAB
0
TABLE
2
APPID
5
9
100
AcDbSymbolTable
70
2
0
APPID
5
12
100
AcDbSymbolTableRecord
100
AcDbRegAppTableRecord
2
ACAD
70
0
0
ENDTAB
0
TABLE
2
DIMSTYLE
5
A
100
AcDbSymbolTable
70
1
0
ENDTAB
0
TABLE
2
BLOCK_RECORD
5
1
100
AcDbSymbolTable
70
1
0
BLOCK_RECORD
5
1F
100
AcDbSymbolTableRecord
100
AcDbBlockTableRecord
2
*MODEL_SPACE
0
BLOCK_RECORD
5
1B
100
AcDbSymbolTableRecord
100
AcDbBlockTableRecord
2
*PAPER_SPACE
0
ENDTAB
0
ENDSEC
0
SECTION
2
BLOCKS
0
BLOCK
5
20
100
AcDbEntity
100
AcDbBlockBegin
2
*MODEL_SPACE
0
ENDBLK
5
21
100
AcDbEntity
100
AcDbBlockEnd
0
BLOCK
5
1C
100
AcDbEntity
100
AcDbBlockBegin
2
*PAPER_SPACE
0
ENDBLK
5
1D
100
AcDbEntity
100
AcDbBlockEnd
0
ENDSEC
0
SECTION
2
ENTITIES
0
LWPOLYLINE
5
100
100
AcDbEntity
8
0
100
AcDbPolyline
90
128
70
1
43
0.0
10
-14.068240999999979
20
-17.336539000000002
10
-13.635778999999992
20
-17.393473000000004
10
-13.199999999999967
20
-17.412500000000009
10
13.800000000000026
20
-17.412500000000009
10
14.235779000000015
20
-17.393473000000004
10
14.668241000000037
20
-17.336539000000002
10
15.094095000000038
20
-17.242128999999995
10
15.510101000000027
20
-17.110963000000012
10
15.913091000000037
20
-16.944038999999993
10
16.300000000000026
20
-16.742626999999999
10
16.667882000000027
20
-16.508260000000003
10
17.013938000000053
20
-16.242722000000001
10
17.335534000000052
20
-15.948034
10
17.630222000000018
20
-15.626438
10
17.895760000000038
20
-15.280381999999992
10
18.130127000000016
20
-14.912500000000009
10
18.331539000000028
20
-14.525591000000002
10
18.498463000000029
20
-14.122600999999992
10
18.62962900000003
20
-13.706595000000004
10
18.724039000000019
20
-13.280741000000003
10
18.780973000000039
20
-12.848278999999998
10
18.800000000000026
20
-12.412500000000009
10
18.800000000000026
20
17.587499999999991
10
18.780973000000039
20
18.023278999999999
10
18.724039000000019
20
18.455741000000003
10
18.62962900000003
20
18.881595000000004
10
18.498463000000029
20
19.297601000000011
10
18.331539000000028
20
19.700591000000003
10
18.130127000000016
20
20.087499999999991
10
17.895760000000038
20
20.455382000000011
10
17.630222000000018
20
20.801438000000019
10
17.335534000000052
20
21.123034000000018
10
17.013938000000053
20
21.417721999999983
10
16.667882000000027
20
21.683260000000004
10
16.300000000000026
20
21.917627
10
15.913091000000037
20
22.119039000000011
10
15.510101000000027
20
22.285962999999995
10
15.094095000000038
20
22.417129000000013
10
14.668241000000037
20
22.511538999999985
10
14.235779000000015
20
22.568473000000004
10
13.800000000000026
20
22.587499999999991
10
-13.199999999999967
20
22.587499999999991
10
-13.635778999999992
20
22.568473000000004
10
-14.068240999999979
20
22.511538999999985
10
-14.49409499999998
20
22.417129000000013
10
-14.910101000000004
20
22.285962999999995
10
-15.313090999999979
20
22.119039000000011
10
-15.699999999999967
20
21.917627
10
-16.067882000000004
20
21.683260000000004
10
-16.413937999999995
20
21.417721999999983
10
-16.735533999999994
20
21.123034000000018
10
-17.030221999999959
20
20.801438000000019
10
-17.29575999999998
20
20.455382000000011
10
-17.530126999999993
20
20.087499999999991
10
-17.731539000000005
20
19.700591000000003
10
-17.898462999999971
20
19.297601000000011
10
-18.029629000000007
20
18.881595000000004
10
-18.124038999999961
20
18.455741000000003
10
-18.18097299999998
20
18.023278999999999
10
-18.199999999999967
20
17.587499999999991
10
-18.199999999999967
20
15.587499999999999
10
-18.21902699999999
20
15.151721000000009
10
-18.275960999999974
20
14.719258999999987
10
-18.370370999999963
20
14.293405000000003
10
-18.501536999999963
20
13.877398999999997
10
-18.668460999999965
20
13.474409000000005
10
-18.869872999999977
20
13.087499999999999
10
-19.104239999999955
20
12.719617999999997
10
-19.369777999999975
20
12.373561999999989
10
-19.664465999999976
20
12.05196599999999
10
-19.986061999999976
20
11.757278000000007
10
-20.332117999999966
20
11.491739999999986
10
-20.699999999999967
20
11.257372999999991
10
-21.086908999999991
20
11.055960999999996
10
-21.489898999999966
20
10.889036999999995
10
-21.90590499999999
20
10.757870999999994
10
-22.331758999999956
20
10.663461000000005
10
-22.764220999999978
20
10.606526999999986
10
-23.199999999999967
20
10.587499999999999
10
-27.199999999999989
20
10.587499999999999
10
-27.329410000000003
20
10.570462999999997
10
-27.449999999999974
20
10.520513000000005
10
-27.55355299999998
20
10.441053
10
-27.633012999999984
20
10.337499999999995
10
-27.682962999999994
20
10.216909999999988
10
-27.699999999999996
20
10.087499999999991
10
-27.699999999999996
20
-4.9125010000000024
10
-27.682962999999994
20
-5.0419099999999872
10
-27.633011999999972
20
-5.162501000000006
10
-27.55355299999998
20
-5.2660540000000111
10
-27.449999999999974
20
-5.345513000000004
10
-27.329408999999991
20
-5.3954629999999959
10
-27.199999999999989
20
-5.4125009999999918
10
-23.199999999999967
20
-5.4124999999999979
10
-22.764220999999978
20
-5.4315270000000027
10
-22.331758999999956
20
-5.4884610000000045
10
-21.90590499999999
20
-5.5828710000000115
10
-21.489898999999966
20
-5.714036999999994
10
-21.086908999999991
20
-5.8809610000000134
10
-20.699999999999967
20
-6.0823729999999898
10
-20.332117999999966
20
-6.3167400000000029
10
-19.986061999999976
20
-6.5822779999999881
10
-19.664465999999976
20
-6.8769660000000066
10
-19.369777999999975
20
-7.1985620000000061
10
-19.104239999999955
20
-7.544618000000014
10
-18.869872999999977
20
-7.9124999999999979
10
-18.668460999999965
20
-8.2994090000000043
10
-18.501536999999963
20
-8.702399000000014
10
-18.370370999999963
20
-9.1184050000000028
10
-18.275960999999974
20
-9.5442590000000038
10
-18.21902699999999
20
-9.9767210000000084
10
-18.199999999999967
20
-10.412499999999998
10
-18.199999999999967
20
-12.412500000000009
10
-18.18097299999998
20
-12.848278999999998
10
-18.124038999999961
20
-13.280741000000003
10
-18.029629000000007
20
-13.706595000000004
10
-17.898462999999971
20
-14.122600999999992
10
-17.731539000000005
20
-14.525591000000002
10
-17.530126999999993
20
-14.912500000000009
10
-17.29575999999998
20
-15.280381999999992
10
-17.030221999999959
20
-15.626438
10
-16.735533999999994
20
-15.948034
10
-16.413937999999995
20
-16.242722000000001
10
-16.067882000000004
20
-16.508260000000003
10
-15.699999999999967
20
-16.742626999999999
10
-15.313090999999979
20
-16.944038999999993
10
-14.910101000000004
20
-17.110963000000012
10
-14.49409499999998
20
-17.242128999999995
0
LWPOLYLINE
5
101
100
AcDbEntity
8
0
100
AcDbPolyline
90
20
70
1
43
0.0
10
-4.8148919999999862
20
-10.527374999999992
10
-4.7750649999999695
20
-10.424569999999989
10
-4.7007899999999836
20
-10.343094999999991
10
-4.6020989999999884
20
-10.293951999999997
10
-4.4923189999999735
20
-10.28378
10
-4.3862779999999546
20
-10.313950999999992
10
-4.2982969999999909
20
-10.380390999999989
10
-4.2402579999999901
20
-10.474128
10
-4.220000000000006
20
-10.58250000000001
10
-4.220000000000006
20
-11.682500000000005
10
-4.2251079999999774
20
-11.737625000000005
10
-4.2649349999999586
20
-11.840430000000008
10
-4.33920999999998
20
-11.921905000000006
10
-4.4379009999999752
20
-11.971048
10
-4.5476809999999901
20
-11.981219999999997
10
-4.6537219999999735
20
-11.951049000000005
10
-4.7417030000000082
20
-11.884609000000008
10
-4.7997419999999735
20
-11.790871999999997
10
-4.8199999999999932
20
-11.682500000000005
10
-4.8199999999999932
20
-10.58250000000001
0
LWPOLYLINE
5
102
100
AcDbEntity
8
0
100
AcDbPolyline
90
20
70
1
43
0.0
10
-4.8148919999999862
20
-14.847375000000014
10
-4.7750649999999695
20
-14.74457000000001
10
-4.7007899999999836
20
-14.663095000000013
10
-4.6020989999999884
20
-14.613952000000001
10
-4.4923189999999735
20
-14.603780000000004
10
-4.3862779999999546
20
-14.633950999999996
10
-4.2982969999999909
20
-14.70039100000001
10
-4.2402579999999901
20
-14.794128000000004
10
-4.220000000000006
20
-14.902499999999996
10
-4.220000000000006
20
-15.702500000000015
10
-4.2251079999999774
20
-15.757624999999997
10
-4.2649349999999586
20
-15.860430000000001
10
-4.33920999999998
20
-15.941904999999998
10
-4.4379009999999752
20
-15.991047999999992
10
-4.5476809999999901
20
-16.001219999999989
10
-4.6537219999999735
20
-15.971048999999997
10
-4.7417030000000082
20
-15.904609000000001
10
-4.7997419999999735
20
-15.810871999999989
10
-4.8199999999999932
20
-15.702500000000015
10
-4.8199999999999932
20
-14.902499999999996
0
LWPOLYLINE
5
103
100
AcDbEntity
8
0
100
AcDbPolyline
90
20
70
1
43
0.0
10
3.8251080000000215
20
-10.527374999999992
10
3.8649350000000027
20
-10.424569999999989
10
3.9392100000000241
20
-10.343094999999991
10
4.0379010000000193
20
-10.293951999999997
10
4.1476809999999986
20
-10.28378
10
4.2537220000000175
20
-10.313950999999992
10
4.3417030000000167
20
-10.380390999999989
10
4.3997420000000176
20
-10.474128
10
4.4200000000000372
20
-10.58250000000001
10
4.4200000000000372
20
-11.682500000000005
10
4.4148920000000302
20
-11.737625000000005
10
4.3750650000000135
20
-11.840430000000008
10
4.3007900000000276
20
-11.921905000000006
10
4.2020989999999969
20
-11.971048
10
4.0923190000000176
20
-11.981219999999997
10
3.9862779999999987
20
-11.951049000000005
10
3.898297000000035
20
-11.884609000000008
10
3.8402579999999986
20
-11.790871999999997
10
3.8200000000000145
20
-11.682500000000005
10
3.8200000000000145
20
-10.58250000000001
0
LWPOLYLINE
5
104
100
AcDbEntity
8
0
100
AcDbPolyline
90
20
70
1
43
0.0
10
3.8251080000000215
20
-14.847375000000014
10
3.8649350000000027
20
-14.74457000000001
10
3.9392100000000241
20
-14.663095000000013
10
4.0379010000000193
20
-14.613952000000001
10
4.1476809999999986
20
-14.603780000000004
10
4.2537220000000175
20
-14.633950999999996
10
4.3417030000000167
20
-14.70039100000001
10
4.3997420000000176
20
-14.794128000000004
10
4.4200000000000372
20
-14.902499999999996
10
4.4200000000000372
20
-15.702500000000015
10
4.4148920000000302
20
-15.757624999999997
10
4.3750650000000135
20
-15.860430000000001
10
4.3007900000000276
20
-15.941904999999998
10
4.2020989999999969
20
-15.991047999999992
10
4.0923190000000176
20
-16.001219999999989
10
3.9862779999999987
20
-15.971048999999997
10
3.898297000000035
20
-15.904609000000001
10
3.8402579999999986
20
-15.810871999999989
10
3.8200000000000145
20
-15.702500000000015
10
3.8200000000000145
20
-14.902499999999996
0
CIRCLE
5
105
100
AcDbEntity
8
0
100
AcDbCircle
10
-14.199999999999982
20
18.587500000000006
30
0
40
1.1000000000000001
210
0
220
0
230
1
0
CIRCLE
5
106
100
AcDbEntity
8
0
100
AcDbCircle
10
-21.899999999999977
20
9.2375000000000007
30
0
40
0.14999999999999999
210
0
220
0
230
1
0
CIRCLE
5
107
100
AcDbEntity
8
0
100
AcDbCircle
10
-2.099999999999973
20
18.837499999999991
30
0
40
0.5
210
0
220
0
230
1
0
CIRCLE
5
108
100
AcDbEntity
8
0
100
AcDbCircle
10
1.4000000000000057
20
18.837499999999991
30
0
40
0.5
210
0
220
0
230
1
0
CIRCLE
5
109
100
AcDbEntity
8
0
100
AcDbCircle
10
14.80000000000004
20
18.587500000000006
30
0
40
1.1000000000000001
210
0
220
0
230
1
0
CIRCLE
5
110
100
AcDbEntity
8
0
100
AcDbCircle
10
16.600000000000037
20
14.167500000000004
30
0
40
0.5
210
0
220
0
230
1
0
CIRCLE
5
111
100
AcDbEntity
8
0
100
AcDbCircle
10
16.600000000000037
20
11.627499999999991
30
0
40
0.5
210
0
220
0
230
1
0
CIRCLE
5
112
100
AcDbEntity
8
0
100
AcDbCircle
10
16.600000000000037
20
9.087499999999995
30
0
40
0.5
210
0
220
0
230
1
0
CIRCLE
5
113
100
AcDbEntity
8
0
100
AcDbCircle
10
16.600000000000037
20
6.5474999999999994
30
0
40
0.5
210
0
220
0
230
1
0
CIRCLE
5
114
100
AcDbEntity
8
0
100
AcDbCircle
10
16.600000000000037
20
4.0075000000000038
30
0
40
0.5
210
0
220
0
230
1
0
CIRCLE
5
115
100
AcDbEntity
8
0
100
AcDbCircle
10
-14.519999999999982
20
-2.0875000000000021
30
0
40
1.2255499999999999
210
0
220
0
230
1
0
CIRCLE
5
116
100
AcDbEntity
8
0
100
AcDbCircle
10
-14.519999999999982
20
-4.6274999999999977
30
0
40
0.53339999999999999
210
0
220
0
230
1
0
CIRCLE
5
117
100
AcDbEntity
8
0
100
AcDbCircle
10
-8.8049999999999784
20
-2.0875000000000021
30
0
40
1.2255499999999999
210
0
220
0
230
1
0
CIRCLE
5
118
100
AcDbEntity
8
0
100
AcDbCircle
10
-6.8999999999999773
20
-3.6125000000000007
30
0
40
0.53339999999999999
210
0
220
0
230
1
0
CIRCLE
5
119
100
AcDbEntity
8
0
100
AcDbCircle
10
-6.8999999999999773
20
-5.6425000000000125
30
0
40
0.53339999999999999
210
0
220
0
230
1
0
CIRCLE
5
120
100
AcDbEntity
8
0
100
AcDbCircle
10
-14.519999999999982
20
-7.1674999999999933
30
0
40
1.2255499999999999
210
0
220
0
230
1
0
CIRCLE
5
121
100
AcDbEntity
8
0
100
AcDbCircle
10
-14.199999999999982
20
-13.412500000000005
30
0
40
1.1000000000000001
210
0
220
0
230
1
0
CIRCLE
5
122
100
AcDbEntity
8
0
100
AcDbCircle
10
-8.8049999999999784
20
-7.1674999999999933
30
0
40
1.2255499999999999
210
0
220
0
230
1
0
CIRCLE
5
123
100
AcDbEntity
8
0
100
AcDbCircle
10
-3.089999999999975
20
-11.612500000000008
30
0
40
0.29999999999999999
210
0
220
0
230
1
0
CIRCLE
5
124
100
AcDbEntity
8
0
100
AcDbCircle
10
16.600000000000037
20
1.4674999999999905
30
0
40
0.5
210
0
220
0
230
1
0
CIRCLE
5
125
100
AcDbEntity
8
0
100
AcDbCircle
10
2.690000000000019
20
-11.612500000000008
30
0
40
0.29999999999999999
210
0
220
0
230
1
0
CIRCLE
5
126
100
AcDbEntity
8
0
100
AcDbCircle
10
14.80000000000004
20
-13.412500000000005
30
0
40
1.1000000000000001
210
0
220
0
230
1
0
ENDSEC
0
SECTION
2
OBJECTS
0
DICTIONARY
5
C
100
AcDbDictionary
3
ACAD_GROUP
350
D
3
ACAD_MLINESTYLE
350
17
0
DICTIONARY
5
D
100
AcDbDictionary
0
DICTIONARY
5
1A
330
C
100
AcDbDictionary
0
DICTIONARY
5
17
100
AcDbDictionary
0
ENDSEC
0
EOF
