0
SECTION
2
HEADER
9
$INSUNITS
70
4
9
$ACADVER
1
AC1014
9
$HANDSEED
5
FFFF
0
ENDSEC
0
SECTION
2
TABLES
0
TABLE
2
VPORT
5
8
100
AcDbSymbolTable
0
ENDTAB
0
TABLE
2
LTYPE
5
5
100
AcDbSymbolTable
0
LTYPE
5
14
100
AcDbSymbolTableRecord
100
AcDbLinetypeTableRecord
2
BYBLOCK
70
0
0
LTYPE
5
15
100
AcDbSymbolTableRecord
100
AcDbLinetypeTableRecord
2
BYLAYER
70
0
0
ENDTAB
0
TABLE
2
LAYER
5
2
100
AcDbSymbolTable
70
2
0
LAYER
5
50
100
AcDbSymbolTableRecord
100
AcDbLayerTableRecord
2
0
70
0
6
CONTINUOUS
0
ENDTAB
0
TABLE
2
STYLE
5
3
100
AcDbSymbolTable
70
1
0
STYLE
5
11
100
AcDbSymbolTableRecord
100
AcDbTextStyleTableRecord
2
STANDARD
70
0
0
ENDTAB
0
TABLE
2
VIEW
5
6
100
AcDbSymbolTable
70
0
0
ENDTAB
0
TABLE
2
UCS
5
7
100
AcDbSymbolTable
70
0
0
ENDTAB
0
TABLE
2
APPID
5
9
100
AcDbSymbolTable
70
2
0
APPID
5
12
100
AcDbSymbolTableRecord
100
AcDbRegAppTableRecord
2
ACAD
70
0
0
ENDTAB
0
TABLE
2
DIMSTYLE
5
A
100
AcDbSymbolTable
70
1
0
ENDTAB
0
TABLE
2
BLOCK_RECORD
5
1
100
AcDbSymbolTable
70
1
0
BLOCK_RECORD
5
1F
100
AcDbSymbolTableRecord
100
AcDbBlockTableRecord
2
*MODEL_SPACE
0
BLOCK_RECORD
5
1B
100
AcDbSymbolTableRecord
100
AcDbBlockTableRecord
2
*PAPER_SPACE
0
ENDTAB
0
ENDSEC
0
SECTION
2
BLOCKS
0
BLOCK
5
20
100
AcDbEntity
100
AcDbBlockBegin
2
*MODEL_SPACE
0
ENDBLK
5
21
100
AcDbEntity
100
AcDbBlockEnd
0
BLOCK
5
1C
100
AcDbEntity
100
AcDbBlockBegin
2
*PAPER_SPACE
0
ENDBLK
5
1D
100
AcDbEntity
100
AcDbBlockEnd
0
ENDSEC
0
SECTION
2
ENTITIES
0
LWPOLYLINE
5
100
100
AcDbEntity
8
0
100
AcDbPolyline
90
128
70
1
43
0.0
10
18.780973000000039
20
18.023278999999999
10
18.724039000000015
20
18.455741000000003
10
18.62962900000003
20
18.881595000000004
10
18.498463000000026
20
19.297601000000007
10
18.331539000000028
20
19.700591000000006
10
18.130127000000016
20
20.087499999999991
10
17.895760000000038
20
20.455382000000007
10
17.630222000000018
20
20.801438000000015
10
17.335534000000052
20
21.123034000000018
10
17.013938000000053
20
21.417721999999983
10
16.667882000000027
20
21.683260000000004
10
16.300000000000026
20
21.917627
10
15.913091000000037
20
22.119039000000008
10
15.510101000000027
20
22.285962999999995
10
15.094095000000038
20
22.41712900000001
10
14.668241000000037
20
22.511538999999985
10
14.235779000000017
20
22.568473000000004
10
13.800000000000026
20
22.587499999999991
10
-13.199999999999967
20
22.587499999999991
10
-13.635778999999992
20
22.568473000000004
10
-14.068240999999981
20
22.511538999999985
10
-14.49409499999998
20
22.41712900000001
10
-14.910101000000004
20
22.285962999999995
10
-15.31309099999998
20
22.119039000000008
10
-15.699999999999967
20
21.917627
10
-16.067882000000004
20
21.683260000000004
10
-16.413937999999995
20
21.417721999999983
10
-16.735533999999994
20
21.123034000000018
10
-17.030221999999963
20
20.801438000000015
10
-17.29575999999998
20
20.455382000000007
10
-17.530126999999993
20
20.087499999999991
10
-17.731539000000005
20
19.700591000000006
10
-17.898462999999975
20
19.297601000000007
10
-18.029629000000007
20
18.881595000000004
10
-18.124038999999961
20
18.455741000000003
10
-18.18097299999998
20
18.023278999999999
10
-18.199999999999967
20
17.587499999999991
10
-18.199999999999967
20
15.5875
10
-18.219026999999986
20
15.151721000000009
10
-18.275960999999974
20
14.719258999999989
10
-18.370370999999963
20
14.293405000000005
10
-18.501536999999963
20
13.877398999999997
10
-18.668460999999965
20
13.474409000000005
10
-18.869872999999977
20
13.0875
10
-19.104239999999951
20
12.719617999999997
10
-19.369777999999975
20
12.373561999999989
10
-19.664465999999976
20
12.051965999999991
10
-19.986061999999976
20
11.757278000000007
10
-20.332117999999969
20
11.491739999999984
10
-20.699999999999967
20
11.257372999999992
10
-21.086908999999991
20
11.055960999999995
10
-21.489898999999966
20
10.889036999999995
10
-21.90590499999999
20
10.757870999999994
10
-22.331758999999963
20
10.663461000000003
10
-22.764220999999978
20
10.606526999999987
10
-23.199999999999967
20
10.5875
10
-27.199999999999992
20
10.5875
10
-27.329410000000006
20
10.570462999999997
10
-27.449999999999971
20
10.520513000000003
10
-27.55355299999998
20
10.441053
10
-27.633012999999984
20
10.337499999999997
10
-27.682962999999994
20
10.216909999999988
10
-27.699999999999999
20
10.087499999999991
10
-27.699999999999999
20
-4.9125010000000024
10
-27.682962999999994
20
-5.0419099999999872
10
-27.633011999999969
20
-5.162501000000006
10
-27.55355299999998
20
-5.2660540000000111
10
-27.449999999999971
20
-5.345513000000004
10
-27.329408999999991
20
-5.3954629999999959
10
-27.199999999999992
20
-5.4125009999999918
10
-23.199999999999967
20
-5.4124999999999979
10
-22.764220999999978
20
-5.4315270000000027
10
-22.331758999999963
20
-5.4884610000000045
10
-21.90590499999999
20
-5.5828710000000124
10
-21.489898999999966
20
-5.714036999999994
10
-21.086908999999991
20
-5.8809610000000125
10
-20.699999999999967
20
-6.0823729999999898
10
-20.332117999999969
20
-6.3167400000000029
10
-19.986061999999976
20
-6.5822779999999881
10
-19.664465999999976
20
-6.8769660000000075
10
-19.369777999999975
20
-7.1985620000000061
10
-19.104239999999951
20
-7.544618000000014
10
-18.869872999999977
20
-7.9124999999999988
10
-18.668460999999965
20
-8.2994090000000025
10
-18.501536999999963
20
-8.702399000000014
10
-18.370370999999963
20
-9.1184050000000028
10
-18.275960999999974
20
-9.5442590000000038
10
-18.219026999999986
20
-9.9767210000000084
10
-18.199999999999967
20
-10.412499999999998
10
-18.199999999999967
20
-12.412500000000009
10
-18.18097299999998
20
-12.848278999999998
10
-18.124038999999961
20
-13.280741000000004
10
-18.029629000000007
20
-13.706595000000005
10
-17.898462999999975
20
-14.122600999999992
10
-17.731539000000005
20
-14.525591000000002
10
-17.530126999999993
20
-14.912500000000009
10
-17.29575999999998
20
-15.280381999999992
10
-17.030221999999963
20
-15.626438
10
-16.735533999999994
20
-15.948034
10
-16.413937999999995
20
-16.242722000000001
10
-16.067882000000004
20
-16.508260000000003
10
-15.699999999999967
20
-16.742626999999999
10
-15.31309099999998
20
-16.944038999999993
10
-14.910101000000004
20
-17.110963000000012
10
-14.49409499999998
20
-17.242128999999995
10
-14.068240999999981
20
-17.336539000000002
10
-13.635778999999992
20
-17.393473000000004
10
-13.199999999999967
20
-17.412500000000009
10
13.800000000000026
20
-17.412500000000009
10
14.235779000000017
20
-17.393473000000004
10
14.668241000000037
20
-17.336539000000002
10
15.094095000000038
20
-17.242128999999995
10
15.510101000000027
20
-17.110963000000012
10
15.913091000000037
20
-16.944038999999993
10
16.300000000000026
20
-16.742626999999999
10
16.667882000000027
20
-16.508260000000003
10
17.013938000000053
20
-16.242722000000001
10
17.335534000000052
20
-15.948034
10
17.630222000000018
20
-15.626438
10
17.895760000000038
20
-15.280381999999992
10
18.130127000000016
20
-14.912500000000009
10
18.331539000000028
20
-14.525591000000002
10
18.498463000000026
20
-14.122600999999992
10
18.62962900000003
20
-13.706595000000005
10
18.724039000000015
20
-13.280741000000004
10
18.780973000000039
20
-12.848278999999998
10
18.800000000000026
20
-12.412500000000009
10
18.800000000000026
20
17.587499999999991
0
CIRCLE
5
101
100
AcDbEntity
8
0
100
AcDbCircle
10
-14.199999999999983
20
18.587500000000006
30
0
40
1.1000000000000001
210
0
220
0
230
1
0
CIRCLE
5
102
100
AcDbEntity
8
0
100
AcDbCircle
10
-21.899999999999977
20
9.2375000000000007
30
0
40
0.14999999999999999
210
0
220
0
230
1
0
CIRCLE
5
103
100
AcDbEntity
8
0
100
AcDbCircle
10
14.80000000000004
20
18.587500000000006
30
0
40
1.1000000000000001
210
0
220
0
230
1
0
CIRCLE
5
104
100
AcDbEntity
8
0
100
AcDbCircle
10
-14.199999999999983
20
-13.412500000000005
30
0
40
1.1000000000000001
210
0
220
0
230
1
0
CIRCLE
5
105
100
AcDbEntity
8
0
100
AcDbCircle
10
14.80000000000004
20
-13.412500000000005
30
0
40
1.1000000000000001
210
0
220
0
230
1
0
LWPOLYLINE
5
106
100
AcDbEntity
8
0
100
AcDbPolyline
90
128
70
1
43
0.0
10
-17.106899453579373
20
-15.690777961551714
10
-16.806312045432097
20
-16.018812045432092
10
-16.478277961551708
20
-16.319399453579411
10
-16.125294303560992
20
-16.590253230354101
10
-15.750047654994203
20
-16.829312035309609
10
-15.355393088345277
20
-17.034756120554185
10
-14.944335586804485
20
-17.205021790638323
10
-14.520001588889187
20
-17.338813594531892
10
-14.085622331926128
20
-17.435113607329434
10
-13.644502851940377
20
-17.493187372130762
10
-13.202182062523669
20
-17.51250000000001
10
13.802182062523727
20
-17.51250000000001
10
14.244502851940402
20
-17.493187372130762
10
14.685622331926185
20
-17.435113607329434
10
15.120001588889254
20
-17.338813594531889
10
15.544335586804491
20
-17.20502179063833
10
15.955393088345339
20
-17.034756120554182
10
16.350047654994256
20
-16.829312035309613
10
16.725294303561014
20
-16.590253230354101
10
17.078277961551773
20
-16.319399453579404
10
17.406312045432156
20
-16.018812045432092
10
17.706899453579428
20
-15.690777961551714
10
17.977753230354129
20
-15.33779430356099
10
18.216812035309637
20
-14.962547654994228
10
18.422256120554216
20
-14.567893088345311
10
18.59252179063834
20
-14.156835586804469
10
18.726313594531923
20
-13.732501588889223
10
18.822613607329451
20
-13.298122331926134
10
18.880687372130794
20
-12.857002851940392
10
18.900000000000027
20
-12.414682062523706
10
18.900000000000027
20
17.589682062523689
10
18.880687372130794
20
18.032002851940391
10
18.822613607329451
20
18.473122331926135
10
18.726313594531923
20
18.907501588889222
10
18.592521790638337
20
19.331835586804495
10
18.422256120554216
20
19.742893088345323
10
18.216812035309637
20
20.137547654994208
10
17.977753230354143
20
20.512794303560984
10
17.706899453579428
20
20.865777961551725
10
17.406312045432138
20
21.193812045432129
10
17.078277961551777
20
21.494399453579383
10
16.725294303560993
20
21.765253230354116
10
16.350047654994285
20
22.004312035309596
10
15.955393088345314
20
22.209756120554207
10
15.544335586804532
20
22.380021790638299
10
15.120001588889245
20
22.513813594531907
10
14.685622331926137
20
22.610113607329431
10
14.244502851940437
20
22.668187372130756
10
13.802182062523771
20
22.687499999999989
10
-13.202182062523713
20
22.687499999999989
10
-13.644502851940413
20
22.668187372130756
10
-14.08562233192608
20
22.610113607329431
10
-14.520001588889224
20
22.513813594531896
10
-14.944335586804447
20
22.38002179063832
10
-15.355393088345295
20
22.209756120554189
10
-15.750047654994203
20
22.00431203530961
10
-16.125294303561009
20
21.765253230354091
10
-16.478277961551697
20
21.494399453579405
10
-16.80631204543208
20
21.193812045432129
10
-17.106899453579373
20
20.865777961551725
10
-17.377753230354088
20
20.51279430356098
10
-17.616812035309618
20
20.137547654994208
10
-17.822256120554187
20
19.742893088345333
10
-17.992521790638282
20
19.331835586804498
10
-18.126313594531908
20
18.907501588889204
10
-18.222613607329397
20
18.473122331926138
10
-18.280687372130735
20
18.032002851940391
10
-18.299999999999969
20
17.589682062523689
10
-18.299999999999969
20
15.589682062523707
10
-18.318741372130741
20
15.160444851940412
10
-18.374535607329413
20
14.736640331926104
10
-18.467055594531857
20
14.319311588889214
10
-18.595595790638278
20
13.911633586804468
10
-18.759178120554147
20
13.516711088345328
10
-18.956558035309591
20
13.137547654994229
10
-19.186233230354048
20
12.777030303560988
10
-19.446455453579386
20
12.437901961551702
10
-19.735244045432072
20
12.122744045432093
10
-20.050401961551692
20
11.833955453579412
10
-20.389530303560953
20
11.573733230354083
10
-20.750047654994201
20
11.344058035309605
10
-21.129211088345304
20
11.146678120554178
10
-21.524133586804425
20
10.983095790638316
10
-21.931811588889218
20
10.854555594531888
10
-22.349140331926098
20
10.762035607329439
10
-22.772944851940373
20
10.706241372130743
10
-23.202182062523665
20
10.6875
10
-27.206554289178385
20
10.6875
10
-27.355515180188604
20
10.667889098986622
10
-27.500431726505902
20
10.607862716296925
10
-27.624873781364453
20
10.512373781364477
10
-27.720362716296908
20
10.387931726505933
10
-27.780389098986618
20
10.243015180188582
10
-27.799999999999997
20
10.094054289178406
10
-27.799999999999997
20
-4.9190553393929797
10
-27.780389051992262
20
-5.0680154362839716
10
-27.720361706221361
20
-5.2129326081895666
10
-27.624873838433956
20
-5.3373748384339823
10
-27.500431322552082
20
-5.4328629253986849
10
-27.355514436286864
20
-5.4928889511298573
10
-27.206554708367165
20
-5.5125010016386717
10
-23.202182050029599
20
-5.512500000545514
10
-22.772944851940387
20
-5.5312413721307561
10
-22.349140331926094
20
-5.5870356073294412
10
-21.931811588889204
20
-5.6795555945319078
10
-21.524133586804446
20
-5.8080957906383057
10
-21.129211088345293
20
-5.9716781205542011
10
-20.750047654994184
20
-6.1690580353096109
10
-20.389530303560978
20
-6.398733230354086
10
-20.050401961551692
20
-6.6589554535793969
10
-19.735244045432069
20
-6.9477440454321107
10
-19.446455453579386
20
-7.2629019615517194
10
-19.186233230354041
20
-7.6020303035610155
10
-18.956558035309598
20
-7.9625476549942142
10
-18.759178120554154
20
-8.3417110883453081
10
-18.595595790638274
20
-8.736633586804496
10
-18.467055594531857
20
-9.1443115888892201
10
-18.374535607329413
20
-9.5616403319261174
10
-18.318741372130741
20
-9.9854448519404126
10
-18.299999999999969
20
-10.414682062523706
10
-18.299999999999969
20
-12.414682062523706
10
-18.280687372130735
20
-12.857002851940392
10
-18.222613607329397
20
-13.298122331926139
10
-18.126313594531904
20
-13.732501588889212
10
-17.992521790638285
20
-14.156835586804474
10
-17.822256120554194
20
-14.567893088345304
10
-17.616812035309607
20
-14.962547654994239
10
-17.37775323035407
20
-15.337794303560987
0
LWPOLYLINE
5
107
100
AcDbEntity
8
0
100
AcDbPolyline
90
128
70
1
43
0.0
10
14.331741371344435
20
-18.490331093438307
10
14.859435651187493
20
-18.420859680623806
10
15.379067477781438
20
-18.305659539850826
10
15.886681454849157
20
-18.145609697021495
10
16.378413971798501
20
-17.941927326096014
10
16.850524204936505
20
-17.696162388405778
10
17.29941733917088
20
-17.410185533895078
10
17.721677577068949
20
-17.086173989373471
10
18.114092499753156
20
-16.72659249975306
10
18.473673989373495
20
-16.334177577068878
10
18.797685533895091
20
-15.911917339170882
10
19.083662388405799
20
-15.463024204936481
10
19.329427326096056
20
-14.990913971798456
10
19.533109697021505
20
-14.499181454849134
10
19.693159539850864
20
-13.991567477781391
10
19.80835968062382
20
-13.471935651187469
10
19.877831093438342
20
-12.94424137134442
10
19.900000000000027
20
-12.43650268776056
10
19.900000000000027
20
17.611502687760538
10
19.877831093438342
20
18.119241371344422
10
19.80835968062382
20
18.646935651187466
10
19.693159539850864
20
19.166567477781392
10
19.533109697021512
20
19.674181454849133
10
19.329427326096038
20
20.165913971798499
10
19.083662388405816
20
20.638024204936428
10
18.797685533895091
20
21.086917339170892
10
18.473673989373495
20
21.509177577068893
10
18.114092499753131
20
21.901592499753111
10
17.721677577068949
20
22.261173989373447
10
17.299417339170894
20
22.585185533895068
10
16.85052420493653
20
22.871162388405764
10
16.378413971798476
20
23.11692732609604
10
15.886681454849146
20
23.320609697021482
10
15.379067477781426
20
23.480659539850848
10
14.859435651187503
20
23.595859680623789
10
14.331741371344421
20
23.665331093438308
10
13.824002687760629
20
23.687499999999989
10
-13.22400268776056
20
23.687499999999989
10
-13.731741371344414
20
23.665331093438308
10
-14.25943565118744
20
23.595859680623789
10
-14.779067477781368
20
23.480659539850848
10
-15.286681454849154
20
23.320609697021474
10
-15.778413971798411
20
23.116927326096047
10
-16.25052420493645
20
22.871162388405772
10
-16.699417339170878
20
22.585185533895071
10
-17.121677577068901
20
22.261173989373439
10
-17.514092499753065
20
21.901592499753114
10
-17.87367398937343
20
21.509177577068908
10
-18.19768553389504
20
21.086917339170881
10
-18.483662388405765
20
20.638024204936482
10
-18.72942732609604
20
20.165913971798453
10
-18.933109697021443
20
19.674181454849172
10
-19.093159539850852
20
19.166567477781371
10
-19.208359680623769
20
18.646935651187423
10
-19.277831093438284
20
18.119241371344412
10
-19.299999999999969
20
17.611502687760542
10
-19.299999999999969
20
15.611502687760577
10
-19.315885093438286
20
15.247683371344422
10
-19.360281680623782
20
14.910453651187421
10
-19.43390153985079
20
14.578377477781412
10
-19.536183697021446
20
14.253979454849127
10
-19.666349326095986
20
13.939731971798469
10
-19.823408388405756
20
13.638024204936476
10
-20.006165533895022
20
13.351153339170864
10
-20.213229989373435
20
13.081301577068894
10
-20.443024499753051
20
12.83052449975308
10
-20.693801577068879
20
12.600729989373464
10
-20.963653339170847
20
12.393665533895044
10
-21.250524204936433
20
12.210908388405779
10
-21.552231971798406
20
12.053849326096039
10
-21.866479454849099
20
11.923683697021477
10
-22.190877477781392
20
11.821401539850825
10
-22.522953651187404
20
11.74778168062381
10
-22.86018337134438
20
11.703385093438294
10
-23.224002687760539
20
11.687500000000002
10
-27.27209718096228
20
11.687500000000002
10
-27.616566982074563
20
11.642150088852867
10
-28.004748991565236
20
11.481359879266142
10
-28.338081595009186
20
11.225581595009245
10
-28.59385987926612
20
10.892248991565278
10
-28.754650088852863
20
10.504066982074534
10
-28.799999999999997
20
10.159597180962333
10
-28.799999999999997
20
-4.9845987333225601
10
-28.754649571914939
20
-5.3290697991238458
10
-28.593858768435268
20
-5.7172486900851895
10
-28.3380822227737
20
-6.0505832227737137
10
-28.004744548073283
20
-6.3063621793854576
10
-27.616568799155555
20
-6.4671484624284767
10
-27.272101792038924
20
-6.5125010180254739
10
-23.224002550326009
20
-6.5125000060006695
10
-22.860183371344405
20
-6.5283850934383034
10
-22.522953651187422
20
-6.5727816806238089
10
-22.190877477781381
20
-6.6464015398508423
10
-21.866479454849106
20
-6.7486836970214759
10
-21.55223197179842
20
-6.8788493260960486
10
-21.250524204936415
20
-7.0359083884057902
10
-20.963653339170875
20
-7.2186655338950416
10
-20.693801577068868
20
-7.4257299893734601
10
-20.443024499753069
20
-7.6555244997530769
10
-20.213229989373435
20
-7.9063015770689082
10
-20.006165533895015
20
-8.1761533391708934
10
-19.823408388405745
20
-8.4630242049364952
10
-19.666349326096004
20
-8.7647319717984384
10
-19.536183697021439
20
-9.0789794548491649
10
-19.43390153985079
20
-9.4033774777814116
10
-19.360281680623789
20
-9.7354536511874112
10
-19.31588509343829
20
-10.072683371344421
10
-19.299999999999969
20
-10.436502687760553
10
-19.299999999999969
20
-12.43650268776056
10
-19.277831093438284
20
-12.944241371344409
10
-19.208359680623769
20
-13.47193565118743
10
-19.093159539850845
20
-13.991567477781398
10
-18.93310969702145
20
-14.499181454849133
10
-18.729427326096054
20
-14.990913971798417
10
-18.483662388405754
20
-15.463024204936524
10
-18.197685533895029
20
-15.911917339170882
10
-17.873673989373419
20
-16.334177577068907
10
-17.514092499753108
20
-16.726592499753053
10
-17.121677577068905
20
-17.086173989373457
10
-16.699417339170875
20
-17.410185533895067
10
-16.250524204936426
20
-17.696162388405789
10
-15.778413971798436
20
-17.941927326096017
10
-15.286681454849173
20
-18.145609697021484
10
-14.779067477781345
20
-18.305659539850833
10
-14.259435651187435
20
-18.420859680623806
10
-13.731741371344429
20
-18.490331093438307
10
-13.224002687760528
20
-18.51250000000001
10
13.82400268776059
20
-18.51250000000001
0
CIRCLE
5
108
100
AcDbEntity
8
0
100
AcDbCircle
10
14.80000000000004
20
-13.412500000000005
30
0
40
1.6000000000000014
210
0
220
0
230
1
0
CIRCLE
5
109
100
AcDbEntity
8
0
100
AcDbCircle
10
-14.199999999999983
20
-13.412500000000005
30
0
40
1.5999999999999992
210
0
220
0
230
1
0
CIRCLE
5
110
100
AcDbEntity
8
0
100
AcDbCircle
10
14.80000000000004
20
18.587500000000006
30
0
40
1.5999999999999992
210
0
220
0
230
1
0
CIRCLE
5
111
100
AcDbEntity
8
0
100
AcDbCircle
10
-14.199999999999983
20
18.587500000000006
30
0
40
1.5999999999999992
210
0
220
0
230
1
0
ENDSEC
0
SECTION
2
OBJECTS
0
DICTIONARY
5
C
100
AcDbDictionary
3
ACAD_GROUP
350
D
3
ACAD_MLINESTYLE
350
17
0
DICTIONARY
5
D
100
AcDbDictionary
0
DICTIONARY
5
1A
330
C
100
AcDbDictionary
0
DICTIONARY
5
17
100
AcDbDictionary
0
ENDSEC
0
EOF
