0
SECTION
2
HEADER
9
$INSUNITS
70
4
9
$ACADVER
1
AC1014
9
$HANDSEED
5
FFFF
0
ENDSEC
0
SECTION
2
TABLES
0
TABLE
2
VPORT
5
8
100
AcDbSymbolTable
0
ENDTAB
0
TABLE
2
LTYPE
5
5
100
AcDbSymbolTable
0
LTYPE
5
14
100
AcDbSymbolTableRecord
100
AcDbLinetypeTableRecord
2
BYBLOCK
70
0
0
LTYPE
5
15
100
AcDbSymbolTableRecord
100
AcDbLinetypeTableRecord
2
BYLAYER
70
0
0
ENDTAB
0
TABLE
2
LAYER
5
2
100
AcDbSymbolTable
70
2
0
LAYER
5
50
100
AcDbSymbolTableRecord
100
AcDbLayerTableRecord
2
0
70
0
6
CONTINUOUS
0
ENDTAB
0
TABLE
2
STYLE
5
3
100
AcDbSymbolTable
70
1
0
STYLE
5
11
100
AcDbSymbolTableRecord
100
AcDbTextStyleTableRecord
2
STANDARD
70
0
0
ENDTAB
0
TABLE
2
VIEW
5
6
100
AcDbSymbolTable
70
0
0
ENDTAB
0
TABLE
2
UCS
5
7
100
AcDbSymbolTable
70
0
0
ENDTAB
0
TABLE
2
APPID
5
9
100
AcDbSymbolTable
70
2
0
APPID
5
12
100
AcDbSymbolTableRecord
100
AcDbRegAppTableRecord
2
ACAD
70
0
0
ENDTAB
0
TABLE
2
DIMSTYLE
5
A
100
AcDbSymbolTable
70
1
0
ENDTAB
0
TABLE
2
BLOCK_RECORD
5
1
100
AcDbSymbolTable
70
1
0
BLOCK_RECORD
5
1F
100
AcDbSymbolTableRecord
100
AcDbBlockTableRecord
2
*MODEL_SPACE
0
BLOCK_RECORD
5
1B
100
AcDbSymbolTableRecord
100
AcDbBlockTableRecord
2
*PAPER_SPACE
0
ENDTAB
0
ENDSEC
0
SECTION
2
BLOCKS
0
BLOCK
5
20
100
AcDbEntity
100
AcDbBlockBegin
2
*MODEL_SPACE
0
ENDBLK
5
21
100
AcDbEntity
100
AcDbBlockEnd
0
BLOCK
5
1C
100
AcDbEntity
100
AcDbBlockBegin
2
*PAPER_SPACE
0
ENDBLK
5
1D
100
AcDbEntity
100
AcDbBlockEnd
0
ENDSEC
0
SECTION
2
ENTITIES
0
LWPOLYLINE
5
100
100
AcDbEntity
8
0
100
AcDbPolyline
90
128
70
1
43
0.0
10
-210.86824100000001
20
100.07596100000001
10
-210.43577900000003
20
100.01902700000001
10
-210
20
100
10
-183
20
100
10
-182.56422100000003
20
100.01902700000001
10
-182.13175899999999
20
100.07596100000001
10
-181.705905
20
100.17037100000002
10
-181.28989899999999
20
100.301537
10
-180.886909
20
100.46846100000002
10
-180.5
20
100.66987300000001
10
-180.13211799999999
20
100.90424
10
-179.78606199999999
20
101.16977800000001
10
-179.46446599999999
20
101.46446600000002
10
-179.16977800000001
20
101.78606200000002
10
-178.90423999999999
20
102.13211800000002
10
-178.66987300000002
20
102.5
10
-178.46846099999999
20
102.886909
10
-178.301537
20
103.28989900000002
10
-178.17037099999999
20
103.705905
10
-178.07596100000001
20
104.131759
10
-178.01902699999999
20
104.564221
10
-178
20
105
10
-178
20
135
10
-178.01902699999999
20
135.435779
10
-178.07596100000001
20
135.86824100000001
10
-178.17037099999999
20
136.29409500000003
10
-178.301537
20
136.71010100000001
10
-178.46846099999999
20
137.113091
10
-178.66987300000002
20
137.5
10
-178.90423999999999
20
137.86788200000001
10
-179.16977800000001
20
138.21393800000004
10
-179.46446599999999
20
138.53553400000004
10
-179.78606199999999
20
138.83022199999999
10
-180.13211799999999
20
139.09576000000001
10
-180.5
20
139.330127
10
-180.886909
20
139.53153900000001
10
-181.28989899999999
20
139.698463
10
-181.705905
20
139.82962900000001
10
-182.13175899999999
20
139.92403899999999
10
-182.56422100000003
20
139.98097300000001
10
-183
20
140
10
-210
20
140
10
-210.43577900000003
20
139.98097300000001
10
-210.86824100000001
20
139.92403899999999
10
-211.29409500000003
20
139.82962900000001
10
-211.71010100000004
20
139.698463
10
-212.113091
20
139.53153900000001
10
-212.5
20
139.330127
10
-212.86788200000004
20
139.09576000000001
10
-213.21393800000004
20
138.83022199999999
10
-213.53553400000004
20
138.53553400000004
10
-213.83022199999999
20
138.21393800000004
10
-214.09576000000001
20
137.86788200000001
10
-214.33012700000003
20
137.5
10
-214.53153900000004
20
137.113091
10
-214.698463
20
136.71010100000001
10
-214.82962900000004
20
136.29409500000003
10
-214.92403899999999
20
135.86824100000001
10
-214.98097300000001
20
135.435779
10
-215
20
135
10
-215
20
133
10
-215.01902700000002
20
132.56422100000003
10
-215.07596100000001
20
132.13175899999999
10
-215.17037099999999
20
131.705905
10
-215.301537
20
131.28989899999999
10
-215.46846099999999
20
130.886909
10
-215.669873
20
130.5
10
-215.90423999999999
20
130.13211799999999
10
-216.16977800000001
20
129.78606199999999
10
-216.46446600000002
20
129.46446599999999
10
-216.78606200000002
20
129.16977800000001
10
-217.13211799999999
20
128.90423999999999
10
-217.5
20
128.669873
10
-217.88690900000003
20
128.46846099999999
10
-218.28989899999999
20
128.301537
10
-218.70590500000003
20
128.17037099999999
10
-219.13175899999999
20
128.07596100000001
10
-219.564221
20
128.01902699999999
10
-220
20
128
10
-224.00000000000003
20
128
10
-224.12941000000004
20
127.98296300000001
10
-224.25
20
127.93301300000002
10
-224.35355300000001
20
127.85355300000001
10
-224.43301300000002
20
127.75
10
-224.48296300000004
20
127.62940999999999
10
-224.50000000000003
20
127.5
10
-224.50000000000003
20
112.499999
10
-224.48296300000004
20
112.37059000000002
10
-224.43301200000002
20
112.249999
10
-224.35355300000001
20
112.146446
10
-224.25
20
112.06698700000001
10
-224.12940900000001
20
112.01703700000002
10
-224.00000000000003
20
111.99999900000002
10
-220
20
112.00000000000001
10
-219.564221
20
111.98097300000001
10
-219.13175899999999
20
111.92403900000001
10
-218.70590500000003
20
111.829629
10
-218.28989899999999
20
111.69846300000002
10
-217.88690900000003
20
111.531539
10
-217.5
20
111.33012700000002
10
-217.13211799999999
20
111.09576000000001
10
-216.78606200000002
20
110.83022200000002
10
-216.46446600000002
20
110.535534
10
-216.16977800000001
20
110.213938
10
-215.90423999999999
20
109.86788199999999
10
-215.669873
20
109.50000000000001
10
-215.46846099999999
20
109.113091
10
-215.301537
20
108.71010099999999
10
-215.17037099999999
20
108.294095
10
-215.07596100000001
20
107.86824100000001
10
-215.01902700000002
20
107.435779
10
-215
20
107.00000000000001
10
-215
20
105
10
-214.98097300000001
20
104.564221
10
-214.92403899999999
20
104.131759
10
-214.82962900000004
20
103.705905
10
-214.698463
20
103.28989900000002
10
-214.53153900000004
20
102.886909
10
-214.33012700000003
20
102.5
10
-214.09576000000001
20
102.13211800000002
10
-213.83022199999999
20
101.78606200000002
10
-213.53553400000004
20
101.46446600000002
10
-213.21393800000004
20
101.16977800000001
10
-212.86788200000004
20
100.90424
10
-212.5
20
100.66987300000001
10
-212.113091
20
100.46846100000002
10
-211.71010100000004
20
100.301537
10
-211.29409500000003
20
100.17037100000002
0
LWPOLYLINE
5
101
100
AcDbEntity
8
0
100
AcDbPolyline
90
20
70
1
43
0.0
10
-201.61489200000003
20
106.88512500000002
10
-201.575065
20
106.98793000000002
10
-201.50079000000002
20
107.06940500000002
10
-201.40209900000002
20
107.118548
10
-201.29231900000002
20
107.12872000000002
10
-201.18627799999999
20
107.09854900000002
10
-201.09829700000003
20
107.03210900000002
10
-201.04025800000002
20
106.93837200000002
10
-201.02000000000004
20
106.83
10
-201.02000000000004
20
105.73
10
-201.02510800000002
20
105.674875
10
-201.06493499999999
20
105.57207
10
-201.13921000000002
20
105.490595
10
-201.23790100000002
20
105.44145200000001
10
-201.34768100000002
20
105.43128000000002
10
-201.453722
20
105.46145100000001
10
-201.54170300000004
20
105.527891
10
-201.59974199999999
20
105.62162800000002
10
-201.62000000000003
20
105.73
10
-201.62000000000003
20
106.83
0
LWPOLYLINE
5
102
100
AcDbEntity
8
0
100
AcDbPolyline
90
20
70
1
43
0.0
10
-201.61489200000003
20
102.56512499999999
10
-201.575065
20
102.66793
10
-201.50079000000002
20
102.749405
10
-201.40209900000002
20
102.79854800000001
10
-201.29231900000002
20
102.80872000000001
10
-201.18627799999999
20
102.77854900000001
10
-201.09829700000003
20
102.712109
10
-201.04025800000002
20
102.61837200000001
10
-201.02000000000004
20
102.51000000000002
10
-201.02000000000004
20
101.70999999999999
10
-201.02510800000002
20
101.654875
10
-201.06493499999999
20
101.55207000000001
10
-201.13921000000002
20
101.470595
10
-201.23790100000002
20
101.42145200000002
10
-201.34768100000002
20
101.41128000000002
10
-201.453722
20
101.44145100000001
10
-201.54170300000004
20
101.507891
10
-201.59974199999999
20
101.60162800000002
10
-201.62000000000003
20
101.70999999999999
10
-201.62000000000003
20
102.51000000000002
0
LWPOLYLINE
5
103
100
AcDbEntity
8
0
100
AcDbPolyline
90
20
70
1
43
0.0
10
-192.97489200000001
20
106.88512500000002
10
-192.93506500000004
20
106.98793000000002
10
-192.86079000000001
20
107.06940500000002
10
-192.76209900000001
20
107.118548
10
-192.65231900000003
20
107.12872000000002
10
-192.54627800000003
20
107.09854900000002
10
-192.45829700000002
20
107.03210900000002
10
-192.40025800000001
20
106.93837200000002
10
-192.38
20
106.83
10
-192.38
20
105.73
10
-192.385108
20
105.674875
10
-192.424935
20
105.57207
10
-192.49921000000001
20
105.490595
10
-192.59790100000004
20
105.44145200000001
10
-192.70768100000001
20
105.43128000000002
10
-192.81372200000004
20
105.46145100000001
10
-192.901703
20
105.527891
10
-192.95974200000003
20
105.62162800000002
10
-192.98000000000002
20
105.73
10
-192.98000000000002
20
106.83
0
LWPOLYLINE
5
104
100
AcDbEntity
8
0
100
AcDbPolyline
90
20
70
1
43
0.0
10
-192.97489200000001
20
102.56512499999999
10
-192.93506500000004
20
102.66793
10
-192.86079000000001
20
102.749405
10
-192.76209900000001
20
102.79854800000001
10
-192.65231900000003
20
102.80872000000001
10
-192.54627800000003
20
102.77854900000001
10
-192.45829700000002
20
102.712109
10
-192.40025800000001
20
102.61837200000001
10
-192.38
20
102.51000000000002
10
-192.38
20
101.70999999999999
10
-192.385108
20
101.654875
10
-192.424935
20
101.55207000000001
10
-192.49921000000001
20
101.470595
10
-192.59790100000004
20
101.42145200000002
10
-192.70768100000001
20
101.41128000000002
10
-192.81372200000004
20
101.44145100000001
10
-192.901703
20
101.507891
10
-192.95974200000003
20
101.60162800000002
10
-192.98000000000002
20
101.70999999999999
10
-192.98000000000002
20
102.51000000000002
0
CIRCLE
5
105
100
AcDbEntity
8
0
100
AcDbCircle
10
-211
20
136
30
0
40
1.1000000000000001
210
0
220
0
230
1
0
CIRCLE
5
106
100
AcDbEntity
8
0
100
AcDbCircle
10
-218.70000000000002
20
126.65000000000001
30
0
40
0.14999999999999999
210
0
220
0
230
1
0
CIRCLE
5
107
100
AcDbEntity
8
0
100
AcDbCircle
10
-198.90000000000001
20
136.25
30
0
40
0.5
210
0
220
0
230
1
0
CIRCLE
5
108
100
AcDbEntity
8
0
100
AcDbCircle
10
-195.40000000000003
20
136.25
30
0
40
0.5
210
0
220
0
230
1
0
CIRCLE
5
109
100
AcDbEntity
8
0
100
AcDbCircle
10
-182
20
136
30
0
40
1.1000000000000001
210
0
220
0
230
1
0
CIRCLE
5
110
100
AcDbEntity
8
0
100
AcDbCircle
10
-180.19999999999999
20
131.58000000000001
30
0
40
0.5
210
0
220
0
230
1
0
CIRCLE
5
111
100
AcDbEntity
8
0
100
AcDbCircle
10
-180.19999999999999
20
129.03999999999999
30
0
40
0.5
210
0
220
0
230
1
0
CIRCLE
5
112
100
AcDbEntity
8
0
100
AcDbCircle
10
-180.19999999999999
20
126.5
30
0
40
0.5
210
0
220
0
230
1
0
CIRCLE
5
113
100
AcDbEntity
8
0
100
AcDbCircle
10
-180.19999999999999
20
123.96000000000001
30
0
40
0.5
210
0
220
0
230
1
0
CIRCLE
5
114
100
AcDbEntity
8
0
100
AcDbCircle
10
-180.19999999999999
20
121.42000000000002
30
0
40
0.5
210
0
220
0
230
1
0
CIRCLE
5
115
100
AcDbEntity
8
0
100
AcDbCircle
10
-211.32000000000002
20
115.325
30
0
40
1.2255499999999999
210
0
220
0
230
1
0
CIRCLE
5
116
100
AcDbEntity
8
0
100
AcDbCircle
10
-211.32000000000002
20
112.78500000000001
30
0
40
0.53339999999999999
210
0
220
0
230
1
0
CIRCLE
5
117
100
AcDbEntity
8
0
100
AcDbCircle
10
-205.60500000000002
20
115.325
30
0
40
1.2255499999999999
210
0
220
0
230
1
0
CIRCLE
5
118
100
AcDbEntity
8
0
100
AcDbCircle
10
-203.70000000000002
20
113.80000000000001
30
0
40
0.53339999999999999
210
0
220
0
230
1
0
CIRCLE
5
119
100
AcDbEntity
8
0
100
AcDbCircle
10
-203.70000000000002
20
111.77
30
0
40
0.53339999999999999
210
0
220
0
230
1
0
CIRCLE
5
120
100
AcDbEntity
8
0
100
AcDbCircle
10
-211.32000000000002
20
110.24500000000002
30
0
40
1.2255499999999999
210
0
220
0
230
1
0
CIRCLE
5
121
100
AcDbEntity
8
0
100
AcDbCircle
10
-211
20
104
30
0
40
1.1000000000000001
210
0
220
0
230
1
0
CIRCLE
5
122
100
AcDbEntity
8
0
100
AcDbCircle
10
-205.60500000000002
20
110.24500000000002
30
0
40
1.2255499999999999
210
0
220
0
230
1
0
CIRCLE
5
123
100
AcDbEntity
8
0
100
AcDbCircle
10
-199.89000000000001
20
105.8
30
0
40
0.29999999999999999
210
0
220
0
230
1
0
CIRCLE
5
124
100
AcDbEntity
8
0
100
AcDbCircle
10
-180.19999999999999
20
118.88
30
0
40
0.5
210
0
220
0
230
1
0
CIRCLE
5
125
100
AcDbEntity
8
0
100
AcDbCircle
10
-194.11000000000001
20
105.8
30
0
40
0.29999999999999999
210
0
220
0
230
1
0
CIRCLE
5
126
100
AcDbEntity
8
0
100
AcDbCircle
10
-182
20
104
30
0
40
1.1000000000000001
210
0
220
0
230
1
0
LWPOLYLINE
5
127
100
AcDbEntity
8
0
100
AcDbPolyline
90
128
70
1
43
0.0
10
-210.86824100000001
20
100.07596100000001
10
-210.43577900000003
20
100.01902700000001
10
-210
20
100
10
-183
20
100
10
-182.56422100000003
20
100.01902700000001
10
-182.13175899999999
20
100.07596100000001
10
-181.705905
20
100.17037100000002
10
-181.28989899999999
20
100.301537
10
-180.886909
20
100.46846100000002
10
-180.5
20
100.66987300000001
10
-180.13211799999999
20
100.90424
10
-179.78606199999999
20
101.16977800000001
10
-179.46446599999999
20
101.46446600000002
10
-179.16977800000001
20
101.78606200000002
10
-178.90423999999999
20
102.13211800000002
10
-178.66987300000002
20
102.5
10
-178.46846099999999
20
102.886909
10
-178.301537
20
103.28989900000002
10
-178.17037099999999
20
103.705905
10
-178.07596100000001
20
104.131759
10
-178.01902699999999
20
104.564221
10
-178
20
105
10
-178
20
135
10
-178.01902699999999
20
135.435779
10
-178.07596100000001
20
135.86824100000001
10
-178.17037099999999
20
136.29409500000003
10
-178.301537
20
136.71010100000001
10
-178.46846099999999
20
137.113091
10
-178.66987300000002
20
137.5
10
-178.90423999999999
20
137.86788200000001
10
-179.16977800000001
20
138.21393800000004
10
-179.46446599999999
20
138.53553400000004
10
-179.78606199999999
20
138.83022199999999
10
-180.13211799999999
20
139.09576000000001
10
-180.5
20
139.330127
10
-180.886909
20
139.53153900000001
10
-181.28989899999999
20
139.698463
10
-181.705905
20
139.82962900000001
10
-182.13175899999999
20
139.92403899999999
10
-182.56422100000003
20
139.98097300000001
10
-183
20
140
10
-210
20
140
10
-210.43577900000003
20
139.98097300000001
10
-210.86824100000001
20
139.92403899999999
10
-211.29409500000003
20
139.82962900000001
10
-211.71010100000004
20
139.698463
10
-212.113091
20
139.53153900000001
10
-212.5
20
139.330127
10
-212.86788200000004
20
139.09576000000001
10
-213.21393800000004
20
138.83022199999999
10
-213.53553400000004
20
138.53553400000004
10
-213.83022199999999
20
138.21393800000004
10
-214.09576000000001
20
137.86788200000001
10
-214.33012700000003
20
137.5
10
-214.53153900000004
20
137.113091
10
-214.698463
20
136.71010100000001
10
-214.82962900000004
20
136.29409500000003
10
-214.92403899999999
20
135.86824100000001
10
-214.98097300000001
20
135.435779
10
-215
20
135
10
-215
20
133
10
-215.01902700000002
20
132.56422100000003
10
-215.07596100000001
20
132.13175899999999
10
-215.17037099999999
20
131.705905
10
-215.301537
20
131.28989899999999
10
-215.46846099999999
20
130.886909
10
-215.669873
20
130.5
10
-215.90423999999999
20
130.13211799999999
10
-216.16977800000001
20
129.78606199999999
10
-216.46446600000002
20
129.46446599999999
10
-216.78606200000002
20
129.16977800000001
10
-217.13211799999999
20
128.90423999999999
10
-217.5
20
128.669873
10
-217.88690900000003
20
128.46846099999999
10
-218.28989899999999
20
128.301537
10
-218.70590500000003
20
128.17037099999999
10
-219.13175899999999
20
128.07596100000001
10
-219.564221
20
128.01902699999999
10
-220
20
128
10
-224.00000000000003
20
128
10
-224.12941000000004
20
127.98296300000001
10
-224.25
20
127.93301300000002
10
-224.35355300000001
20
127.85355300000001
10
-224.43301300000002
20
127.75
10
-224.48296300000004
20
127.62940999999999
10
-224.50000000000003
20
127.5
10
-224.50000000000003
20
112.499999
10
-224.48296300000004
20
112.37059000000002
10
-224.43301200000002
20
112.249999
10
-224.35355300000001
20
112.146446
10
-224.25
20
112.06698700000001
10
-224.12940900000001
20
112.01703700000002
10
-224.00000000000003
20
111.99999900000002
10
-220
20
112.00000000000001
10
-219.564221
20
111.98097300000001
10
-219.13175899999999
20
111.92403900000001
10
-218.70590500000003
20
111.829629
10
-218.28989899999999
20
111.69846300000002
10
-217.88690900000003
20
111.531539
10
-217.5
20
111.33012700000002
10
-217.13211799999999
20
111.09576000000001
10
-216.78606200000002
20
110.83022200000002
10
-216.46446600000002
20
110.535534
10
-216.16977800000001
20
110.213938
10
-215.90423999999999
20
109.86788199999999
10
-215.669873
20
109.50000000000001
10
-215.46846099999999
20
109.113091
10
-215.301537
20
108.71010099999999
10
-215.17037099999999
20
108.294095
10
-215.07596100000001
20
107.86824100000001
10
-215.01902700000002
20
107.435779
10
-215
20
107.00000000000001
10
-215
20
105
10
-214.98097300000001
20
104.564221
10
-214.92403899999999
20
104.131759
10
-214.82962900000004
20
103.705905
10
-214.698463
20
103.28989900000002
10
-214.53153900000004
20
102.886909
10
-214.33012700000003
20
102.5
10
-214.09576000000001
20
102.13211800000002
10
-213.83022199999999
20
101.78606200000002
10
-213.53553400000004
20
101.46446600000002
10
-213.21393800000004
20
101.16977800000001
10
-212.86788200000004
20
100.90424
10
-212.5
20
100.66987300000001
10
-212.113091
20
100.46846100000002
10
-211.71010100000004
20
100.301537
10
-211.29409500000003
20
100.17037100000002
0
CIRCLE
5
128
100
AcDbEntity
8
0
100
AcDbCircle
10
-211
20
136
30
0
40
1.1000000000000001
210
-0
220
0
230
1
0
CIRCLE
5
129
100
AcDbEntity
8
0
100
AcDbCircle
10
-218.70000000000002
20
126.65000000000001
30
0
40
0.14999999999999999
210
-0
220
0
230
1
0
CIRCLE
5
130
100
AcDbEntity
8
0
100
AcDbCircle
10
-198.90000000000001
20
136.25
30
0
40
0.5
210
-0
220
0
230
1
0
CIRCLE
5
131
100
AcDbEntity
8
0
100
AcDbCircle
10
-195.40000000000003
20
136.25
30
0
40
0.5
210
-0
220
0
230
1
0
CIRCLE
5
132
100
AcDbEntity
8
0
100
AcDbCircle
10
-182
20
136
30
0
40
1.1000000000000001
210
-0
220
0
230
1
0
CIRCLE
5
133
100
AcDbEntity
8
0
100
AcDbCircle
10
-180.19999999999999
20
131.58000000000001
30
0
40
0.5
210
-0
220
0
230
1
0
CIRCLE
5
134
100
AcDbEntity
8
0
100
AcDbCircle
10
-180.19999999999999
20
129.03999999999999
30
0
40
0.5
210
-0
220
0
230
1
0
CIRCLE
5
135
100
AcDbEntity
8
0
100
AcDbCircle
10
-180.19999999999999
20
126.5
30
0
40
0.5
210
-0
220
0
230
1
0
CIRCLE
5
136
100
AcDbEntity
8
0
100
AcDbCircle
10
-180.19999999999999
20
123.96000000000001
30
0
40
0.5
210
-0
220
0
230
1
0
CIRCLE
5
137
100
AcDbEntity
8
0
100
AcDbCircle
10
-180.19999999999999
20
121.42000000000002
30
0
40
0.5
210
-0
220
0
230
1
0
CIRCLE
5
138
100
AcDbEntity
8
0
100
AcDbCircle
10
-211.32000000000002
20
115.325
30
0
40
1.2255499999999999
210
-0
220
0
230
1
0
CIRCLE
5
139
100
AcDbEntity
8
0
100
AcDbCircle
10
-211.32000000000002
20
112.78500000000001
30
0
40
0.53339999999999999
210
-0
220
0
230
1
0
CIRCLE
5
140
100
AcDbEntity
8
0
100
AcDbCircle
10
-205.60500000000002
20
115.325
30
0
40
1.2255499999999999
210
-0
220
0
230
1
0
CIRCLE
5
141
100
AcDbEntity
8
0
100
AcDbCircle
10
-203.70000000000002
20
113.80000000000001
30
0
40
0.53339999999999999
210
-0
220
0
230
1
0
CIRCLE
5
142
100
AcDbEntity
8
0
100
AcDbCircle
10
-203.70000000000002
20
111.77
30
0
40
0.53339999999999999
210
-0
220
0
230
1
0
CIRCLE
5
143
100
AcDbEntity
8
0
100
AcDbCircle
10
-211.32000000000002
20
110.24500000000002
30
0
40
1.2255499999999999
210
-0
220
0
230
1
0
CIRCLE
5
144
100
AcDbEntity
8
0
100
AcDbCircle
10
-211
20
104
30
0
40
1.1000000000000001
210
-0
220
0
230
1
0
CIRCLE
5
145
100
AcDbEntity
8
0
100
AcDbCircle
10
-205.60500000000002
20
110.24500000000002
30
0
40
1.2255499999999999
210
-0
220
0
230
1
0
LWPOLYLINE
5
146
100
AcDbEntity
8
0
100
AcDbPolyline
90
20
70
1
43
0.0
10
-201.61489200000003
20
106.88512500000002
10
-201.575065
20
106.98793000000002
10
-201.50079000000002
20
107.06940500000002
10
-201.40209900000002
20
107.118548
10
-201.29231900000002
20
107.12872000000002
10
-201.18627799999999
20
107.09854900000002
10
-201.09829700000003
20
107.03210900000002
10
-201.04025800000002
20
106.93837200000002
10
-201.02000000000004
20
106.83
10
-201.02000000000004
20
105.73
10
-201.02510800000002
20
105.674875
10
-201.06493499999999
20
105.57207
10
-201.13921000000002
20
105.490595
10
-201.23790100000002
20
105.44145200000001
10
-201.34768100000002
20
105.43128000000002
10
-201.453722
20
105.46145100000001
10
-201.54170300000004
20
105.527891
10
-201.59974199999999
20
105.62162800000002
10
-201.62000000000003
20
105.73
10
-201.62000000000003
20
106.83
0
CIRCLE
5
147
100
AcDbEntity
8
0
100
AcDbCircle
10
-199.89000000000001
20
105.8
30
0
40
0.29999999999999999
210
-0
220
0
230
1
0
LWPOLYLINE
5
148
100
AcDbEntity
8
0
100
AcDbPolyline
90
20
70
1
43
0.0
10
-201.61489200000003
20
102.56512499999999
10
-201.575065
20
102.66793
10
-201.50079000000002
20
102.749405
10
-201.40209900000002
20
102.79854800000001
10
-201.29231900000002
20
102.80872000000001
10
-201.18627799999999
20
102.77854900000001
10
-201.09829700000003
20
102.712109
10
-201.04025800000002
20
102.61837200000001
10
-201.02000000000004
20
102.51000000000002
10
-201.02000000000004
20
101.70999999999999
10
-201.02510800000002
20
101.654875
10
-201.06493499999999
20
101.55207000000001
10
-201.13921000000002
20
101.470595
10
-201.23790100000002
20
101.42145200000002
10
-201.34768100000002
20
101.41128000000002
10
-201.453722
20
101.44145100000001
10
-201.54170300000004
20
101.507891
10
-201.59974199999999
20
101.60162800000002
10
-201.62000000000003
20
101.70999999999999
10
-201.62000000000003
20
102.51000000000002
0
CIRCLE
5
149
100
AcDbEntity
8
0
100
AcDbCircle
10
-180.19999999999999
20
118.88
30
0
40
0.5
210
-0
220
0
230
1
0
LWPOLYLINE
5
150
100
AcDbEntity
8
0
100
AcDbPolyline
90
20
70
1
43
0.0
10
-192.97489200000001
20
106.88512500000002
10
-192.93506500000004
20
106.98793000000002
10
-192.86079000000001
20
107.06940500000002
10
-192.76209900000001
20
107.118548
10
-192.65231900000003
20
107.12872000000002
10
-192.54627800000003
20
107.09854900000002
10
-192.45829700000002
20
107.03210900000002
10
-192.40025800000001
20
106.93837200000002
10
-192.38
20
106.83
10
-192.38
20
105.73
10
-192.385108
20
105.674875
10
-192.424935
20
105.57207
10
-192.49921000000001
20
105.490595
10
-192.59790100000004
20
105.44145200000001
10
-192.70768100000001
20
105.43128000000002
10
-192.81372200000004
20
105.46145100000001
10
-192.901703
20
105.527891
10
-192.95974200000003
20
105.62162800000002
10
-192.98000000000002
20
105.73
10
-192.98000000000002
20
106.83
0
CIRCLE
5
151
100
AcDbEntity
8
0
100
AcDbCircle
10
-194.11000000000001
20
105.8
30
0
40
0.29999999999999999
210
-0
220
0
230
1
0
LWPOLYLINE
5
152
100
AcDbEntity
8
0
100
AcDbPolyline
90
20
70
1
43
0.0
10
-192.97489200000001
20
102.56512499999999
10
-192.93506500000004
20
102.66793
10
-192.86079000000001
20
102.749405
10
-192.76209900000001
20
102.79854800000001
10
-192.65231900000003
20
102.80872000000001
10
-192.54627800000003
20
102.77854900000001
10
-192.45829700000002
20
102.712109
10
-192.40025800000001
20
102.61837200000001
10
-192.38
20
102.51000000000002
10
-192.38
20
101.70999999999999
10
-192.385108
20
101.654875
10
-192.424935
20
101.55207000000001
10
-192.49921000000001
20
101.470595
10
-192.59790100000004
20
101.42145200000002
10
-192.70768100000001
20
101.41128000000002
10
-192.81372200000004
20
101.44145100000001
10
-192.901703
20
101.507891
10
-192.95974200000003
20
101.60162800000002
10
-192.98000000000002
20
101.70999999999999
10
-192.98000000000002
20
102.51000000000002
0
CIRCLE
5
153
100
AcDbEntity
8
0
100
AcDbCircle
10
-182
20
104
30
0
40
1.1000000000000001
210
-0
220
0
230
1
0
ENDSEC
0
SECTION
2
OBJECTS
0
DICTIONARY
5
C
100
AcDbDictionary
3
ACAD_GROUP
350
D
3
ACAD_MLINESTYLE
350
17
0
DICTIONARY
5
D
100
AcDbDictionary
0
DICTIONARY
5
1A
330
C
100
AcDbDictionary
0
DICTIONARY
5
17
100
AcDbDictionary
0
ENDSEC
0
EOF
